<svg width="1512" height="120" viewBox="0 0 1512 120" fill="none" xmlns="http://www.w3.org/2000/svg">
<path d="M230.498 66.387C228.89 66.3106 227.799 68.2086 228.641 69.5673L231.549 74.4013L226.139 90.6595C226.138 90.6633 226.137 90.6671 226.136 90.6709C224.85 94.6712 227.885 98.8333 232.087 98.8333H247.913C252.115 98.8333 255.15 94.6712 253.864 90.6709C253.863 90.6671 253.862 90.6633 253.861 90.6595L248.719 75.2086C248.747 75.1849 248.774 75.1599 248.8 75.1337L251.406 72.528C251.782 72.8211 252.256 73.2391 252.773 73.8854C253.871 75.2574 255 77.4444 255 80.9166C254.998 81.0823 255.028 81.2467 255.09 81.4004C255.152 81.5541 255.243 81.694 255.36 81.812C255.476 81.93 255.615 82.0236 255.767 82.0876C255.92 82.1515 256.084 82.1844 256.25 82.1844C256.416 82.1844 256.58 82.1515 256.732 82.0876C256.885 82.0236 257.024 81.93 257.14 81.812C257.256 81.694 257.348 81.5541 257.41 81.4004C257.472 81.2467 257.502 81.0823 257.5 80.9166C257.5 76.8888 256.129 74.0758 254.727 72.3229C253.324 70.5699 251.808 69.7985 251.808 69.7985C251.574 69.6814 251.308 69.641 251.049 69.6831C250.791 69.7251 250.552 69.8475 250.366 70.0328L248.343 72.0559V70.7246C248.343 69.2595 247.235 68.0066 245.783 67.8291C237.555 66.8234 232.764 66.4946 230.498 66.387ZM231.193 68.9602C233.528 69.0823 237.744 69.364 245.48 70.3095C245.691 70.3354 245.843 70.5029 245.843 70.7246V73H233.623L231.193 68.9602ZM233.818 75.5H246.182L248.677 83H231.323L233.818 75.5ZM230.492 85.5H249.508L251.484 91.4375C252.272 93.8915 250.491 96.3333 247.913 96.3333H232.087C229.509 96.3333 227.728 93.8915 228.516 91.4375V91.4358L230.492 85.5Z" fill="#FBEEE4" fill-opacity="0.1"/>
<path d="M782.498 66.387C780.89 66.3106 779.799 68.2086 780.641 69.5673L783.549 74.4013L778.139 90.6595C778.138 90.6633 778.137 90.6671 778.136 90.6709C776.85 94.6712 779.885 98.8333 784.087 98.8333H799.913C804.115 98.8333 807.15 94.6712 805.864 90.6709C805.863 90.6671 805.862 90.6633 805.861 90.6595L800.719 75.2086C800.747 75.1849 800.774 75.1599 800.8 75.1337L803.406 72.528C803.782 72.8211 804.256 73.2391 804.773 73.8854C805.871 75.2574 807 77.4444 807 80.9166C806.998 81.0823 807.028 81.2467 807.09 81.4004C807.152 81.5541 807.243 81.694 807.36 81.812C807.476 81.93 807.615 82.0236 807.768 82.0876C807.92 82.1515 808.084 82.1844 808.25 82.1844C808.416 82.1844 808.58 82.1515 808.732 82.0876C808.885 82.0236 809.024 81.93 809.14 81.812C809.257 81.694 809.348 81.5541 809.41 81.4004C809.472 81.2467 809.502 81.0823 809.5 80.9166C809.5 76.8888 808.129 74.0758 806.727 72.3229C805.324 70.5699 803.808 69.7985 803.808 69.7985C803.574 69.6814 803.308 69.641 803.049 69.6831C802.791 69.7251 802.552 69.8475 802.366 70.0328L800.343 72.0559V70.7246C800.343 69.2595 799.235 68.0066 797.783 67.8291C789.555 66.8234 784.764 66.4946 782.498 66.387ZM783.193 68.9602C785.528 69.0823 789.744 69.364 797.48 70.3095C797.691 70.3354 797.843 70.5029 797.843 70.7246V73H785.623L783.193 68.9602ZM785.818 75.5H798.182L800.677 83H783.323L785.818 75.5ZM782.492 85.5H801.508L803.484 91.4375C804.272 93.8915 802.491 96.3333 799.913 96.3333H784.087C781.509 96.3333 779.728 93.8915 780.516 91.4375V91.4358L782.492 85.5Z" fill="#FBEEE4" fill-opacity="0.1"/>
<path d="M1334.5 66.387C1332.89 66.3106 1331.8 68.2086 1332.64 69.5673L1335.55 74.4013L1330.14 90.6595C1330.14 90.6633 1330.14 90.6671 1330.14 90.6709C1328.85 94.6712 1331.88 98.8333 1336.09 98.8333H1351.91C1356.12 98.8333 1359.15 94.6712 1357.86 90.6709C1357.86 90.6671 1357.86 90.6633 1357.86 90.6595L1352.72 75.2086C1352.75 75.1849 1352.77 75.1599 1352.8 75.1337L1355.41 72.528C1355.78 72.8211 1356.26 73.2391 1356.77 73.8854C1357.87 75.2574 1359 77.4444 1359 80.9166C1359 81.0823 1359.03 81.2467 1359.09 81.4004C1359.15 81.5541 1359.24 81.694 1359.36 81.812C1359.48 81.93 1359.61 82.0236 1359.77 82.0876C1359.92 82.1515 1360.08 82.1844 1360.25 82.1844C1360.42 82.1844 1360.58 82.1515 1360.73 82.0876C1360.89 82.0236 1361.02 81.93 1361.14 81.812C1361.26 81.694 1361.35 81.5541 1361.41 81.4004C1361.47 81.2467 1361.5 81.0823 1361.5 80.9166C1361.5 76.8888 1360.13 74.0758 1358.73 72.3229C1357.32 70.5699 1355.81 69.7985 1355.81 69.7985C1355.57 69.6814 1355.31 69.641 1355.05 69.6831C1354.79 69.7251 1354.55 69.8475 1354.37 70.0328L1352.34 72.0559V70.7246C1352.34 69.2595 1351.23 68.0066 1349.78 67.8291C1341.55 66.8234 1336.76 66.4946 1334.5 66.387ZM1335.19 68.9602C1337.53 69.0823 1341.74 69.364 1349.48 70.3095C1349.69 70.3354 1349.84 70.5029 1349.84 70.7246V73H1337.62L1335.19 68.9602ZM1337.82 75.5H1350.18L1352.68 83H1335.32L1337.82 75.5ZM1334.49 85.5H1353.51L1355.48 91.4375C1356.27 93.8915 1354.49 96.3333 1351.91 96.3333H1336.09C1333.51 96.3333 1331.73 93.8915 1332.52 91.4375V91.4358L1334.49 85.5Z" fill="#FBEEE4" fill-opacity="0.1"/>
<path d="M80.498 17.387C78.8897 17.3106 77.7987 19.2086 78.6409 20.5673L81.5495 25.4013L76.1393 41.6595C76.1382 41.6633 76.1371 41.6671 76.136 41.6709C74.8501 45.6712 77.8847 49.8333 82.0866 49.8333H97.9134C102.115 49.8333 105.15 45.6712 103.864 41.6709C103.863 41.6671 103.862 41.6633 103.861 41.6595L98.7191 26.2086C98.7473 26.1849 98.7744 26.1599 98.8004 26.1337L101.406 23.528C101.782 23.8211 102.256 24.2391 102.773 24.8854C103.871 26.2574 105 28.4444 105 31.9166C104.998 32.0823 105.028 32.2467 105.09 32.4004C105.152 32.5541 105.243 32.694 105.36 32.812C105.476 32.93 105.615 33.0236 105.767 33.0876C105.92 33.1515 106.084 33.1844 106.25 33.1844C106.416 33.1844 106.58 33.1515 106.732 33.0876C106.885 33.0236 107.024 32.93 107.14 32.812C107.256 32.694 107.348 32.5541 107.41 32.4004C107.472 32.2467 107.502 32.0823 107.5 31.9166C107.5 27.8888 106.129 25.0758 104.727 23.3229C103.324 21.5699 101.808 20.7985 101.808 20.7985C101.574 20.6814 101.308 20.641 101.049 20.6831C100.791 20.7251 100.552 20.8475 100.366 21.0328L98.3431 23.0559V21.7246C98.3431 20.2595 97.2349 19.0066 95.7829 18.8291C87.5549 17.8234 82.7635 17.4946 80.498 17.387ZM81.193 19.9602C83.5277 20.0823 87.7437 20.364 95.4801 21.3095C95.6914 21.3354 95.8431 21.5029 95.8431 21.7246V24H83.623L81.193 19.9602ZM83.8183 26.5H96.1816L98.6767 34H81.3232L83.8183 26.5ZM80.4915 36.5H99.5084L101.484 42.4375C102.272 44.8915 100.491 47.3333 97.9134 47.3333H82.0866C79.509 47.3333 77.7279 44.8915 78.5156 42.4375V42.4358L80.4915 36.5Z" fill="#FBEEE4" fill-opacity="0.1"/>
<path d="M632.498 17.387C630.89 17.3106 629.799 19.2086 630.641 20.5673L633.549 25.4013L628.139 41.6595C628.138 41.6633 628.137 41.6671 628.136 41.6709C626.85 45.6712 629.885 49.8333 634.087 49.8333H649.913C654.115 49.8333 657.15 45.6712 655.864 41.6709C655.863 41.6671 655.862 41.6633 655.861 41.6595L650.719 26.2086C650.747 26.1849 650.774 26.1599 650.8 26.1337L653.406 23.528C653.782 23.8211 654.256 24.2391 654.773 24.8854C655.871 26.2574 657 28.4444 657 31.9166C656.998 32.0823 657.028 32.2467 657.09 32.4004C657.152 32.5541 657.243 32.694 657.36 32.812C657.476 32.93 657.615 33.0236 657.768 33.0876C657.92 33.1515 658.084 33.1844 658.25 33.1844C658.416 33.1844 658.58 33.1515 658.732 33.0876C658.885 33.0236 659.024 32.93 659.14 32.812C659.257 32.694 659.348 32.5541 659.41 32.4004C659.472 32.2467 659.502 32.0823 659.5 31.9166C659.5 27.8888 658.129 25.0758 656.727 23.3229C655.324 21.5699 653.808 20.7985 653.808 20.7985C653.574 20.6814 653.308 20.641 653.049 20.6831C652.791 20.7251 652.552 20.8475 652.366 21.0328L650.343 23.0559V21.7246C650.343 20.2595 649.235 19.0066 647.783 18.8291C639.555 17.8234 634.764 17.4946 632.498 17.387ZM633.193 19.9602C635.528 20.0823 639.744 20.364 647.48 21.3095C647.691 21.3354 647.843 21.5029 647.843 21.7246V24H635.623L633.193 19.9602ZM635.818 26.5H648.182L650.677 34H633.323L635.818 26.5ZM632.492 36.5H651.508L653.484 42.4375C654.272 44.8915 652.491 47.3333 649.913 47.3333H634.087C631.509 47.3333 629.728 44.8915 630.516 42.4375V42.4358L632.492 36.5Z" fill="#FBEEE4" fill-opacity="0.1"/>
<path d="M1184.5 17.387C1182.89 17.3106 1181.8 19.2086 1182.64 20.5673L1185.55 25.4013L1180.14 41.6595C1180.14 41.6633 1180.14 41.6671 1180.14 41.6709C1178.85 45.6712 1181.88 49.8333 1186.09 49.8333H1201.91C1206.12 49.8333 1209.15 45.6712 1207.86 41.6709C1207.86 41.6671 1207.86 41.6633 1207.86 41.6595L1202.72 26.2086C1202.75 26.1849 1202.77 26.1599 1202.8 26.1337L1205.41 23.528C1205.78 23.8211 1206.26 24.2391 1206.77 24.8854C1207.87 26.2574 1209 28.4444 1209 31.9166C1209 32.0823 1209.03 32.2467 1209.09 32.4004C1209.15 32.5541 1209.24 32.694 1209.36 32.812C1209.48 32.93 1209.61 33.0236 1209.77 33.0876C1209.92 33.1515 1210.08 33.1844 1210.25 33.1844C1210.42 33.1844 1210.58 33.1515 1210.73 33.0876C1210.89 33.0236 1211.02 32.93 1211.14 32.812C1211.26 32.694 1211.35 32.5541 1211.41 32.4004C1211.47 32.2467 1211.5 32.0823 1211.5 31.9166C1211.5 27.8888 1210.13 25.0758 1208.73 23.3229C1207.32 21.5699 1205.81 20.7985 1205.81 20.7985C1205.57 20.6814 1205.31 20.641 1205.05 20.6831C1204.79 20.7251 1204.55 20.8475 1204.37 21.0328L1202.34 23.0559V21.7246C1202.34 20.2595 1201.23 19.0066 1199.78 18.8291C1191.55 17.8234 1186.76 17.4946 1184.5 17.387ZM1185.19 19.9602C1187.53 20.0823 1191.74 20.364 1199.48 21.3095C1199.69 21.3354 1199.84 21.5029 1199.84 21.7246V24H1187.62L1185.19 19.9602ZM1187.82 26.5H1200.18L1202.68 34H1185.32L1187.82 26.5ZM1184.49 36.5H1203.51L1205.48 42.4375C1206.27 44.8915 1204.49 47.3333 1201.91 47.3333H1186.09C1183.51 47.3333 1181.73 44.8915 1182.52 42.4375V42.4358L1184.49 36.5Z" fill="#FBEEE4" fill-opacity="0.1"/>
<path d="M455.498 66.387C453.89 66.3106 452.799 68.2086 453.641 69.5673L456.549 74.4013L451.139 90.6595C451.138 90.6633 451.137 90.6671 451.136 90.6709C449.85 94.6712 452.885 98.8333 457.087 98.8333H472.913C477.115 98.8333 480.15 94.6712 478.864 90.6709C478.863 90.6671 478.862 90.6633 478.861 90.6595L473.719 75.2086C473.747 75.1849 473.774 75.1599 473.8 75.1337L476.406 72.528C476.782 72.8211 477.256 73.2391 477.773 73.8854C478.871 75.2574 480 77.4444 480 80.9166C479.998 81.0823 480.028 81.2467 480.09 81.4004C480.152 81.5541 480.243 81.694 480.36 81.812C480.476 81.93 480.615 82.0236 480.767 82.0876C480.92 82.1515 481.084 82.1844 481.25 82.1844C481.416 82.1844 481.58 82.1515 481.732 82.0876C481.885 82.0236 482.024 81.93 482.14 81.812C482.256 81.694 482.348 81.5541 482.41 81.4004C482.472 81.2467 482.502 81.0823 482.5 80.9166C482.5 76.8888 481.129 74.0758 479.727 72.3229C478.324 70.5699 476.808 69.7985 476.808 69.7985C476.574 69.6814 476.308 69.641 476.049 69.6831C475.791 69.7251 475.552 69.8475 475.366 70.0328L473.343 72.0559V70.7246C473.343 69.2595 472.235 68.0066 470.783 67.8291C462.555 66.8234 457.764 66.4946 455.498 66.387ZM456.193 68.9602C458.528 69.0823 462.744 69.364 470.48 70.3095C470.691 70.3354 470.843 70.5029 470.843 70.7246V73H458.623L456.193 68.9602ZM458.818 75.5H471.182L473.677 83H456.323L458.818 75.5ZM455.492 85.5H474.508L476.484 91.4375C477.272 93.8915 475.491 96.3333 472.913 96.3333H457.087C454.509 96.3333 452.728 93.8915 453.516 91.4375V91.4358L455.492 85.5Z" fill="#FBEEE4" fill-opacity="0.1"/>
<path d="M1007.5 66.387C1005.89 66.3106 1004.8 68.2086 1005.64 69.5673L1008.55 74.4013L1003.14 90.6595C1003.14 90.6633 1003.14 90.6671 1003.14 90.6709C1001.85 94.6712 1004.88 98.8333 1009.09 98.8333H1024.91C1029.12 98.8333 1032.15 94.6712 1030.86 90.6709C1030.86 90.6671 1030.86 90.6633 1030.86 90.6595L1025.72 75.2086C1025.75 75.1849 1025.77 75.1599 1025.8 75.1337L1028.41 72.528C1028.78 72.8211 1029.26 73.2391 1029.77 73.8854C1030.87 75.2574 1032 77.4444 1032 80.9166C1032 81.0823 1032.03 81.2467 1032.09 81.4004C1032.15 81.5541 1032.24 81.694 1032.36 81.812C1032.48 81.93 1032.61 82.0236 1032.77 82.0876C1032.92 82.1515 1033.08 82.1844 1033.25 82.1844C1033.42 82.1844 1033.58 82.1515 1033.73 82.0876C1033.89 82.0236 1034.02 81.93 1034.14 81.812C1034.26 81.694 1034.35 81.5541 1034.41 81.4004C1034.47 81.2467 1034.5 81.0823 1034.5 80.9166C1034.5 76.8888 1033.13 74.0758 1031.73 72.3229C1030.32 70.5699 1028.81 69.7985 1028.81 69.7985C1028.57 69.6814 1028.31 69.641 1028.05 69.6831C1027.79 69.7251 1027.55 69.8475 1027.37 70.0328L1025.34 72.0559V70.7246C1025.34 69.2595 1024.23 68.0066 1022.78 67.8291C1014.55 66.8234 1009.76 66.4946 1007.5 66.387ZM1008.19 68.9602C1010.53 69.0823 1014.74 69.364 1022.48 70.3095C1022.69 70.3354 1022.84 70.5029 1022.84 70.7246V73H1010.62L1008.19 68.9602ZM1010.82 75.5H1023.18L1025.68 83H1008.32L1010.82 75.5ZM1007.49 85.5H1026.51L1028.48 91.4375C1029.27 93.8915 1027.49 96.3333 1024.91 96.3333H1009.09C1006.51 96.3333 1004.73 93.8915 1005.52 91.4375V91.4358L1007.49 85.5Z" fill="#FBEEE4" fill-opacity="0.1"/>
<path d="M461.498 13.387C459.89 13.3106 458.799 15.2086 459.641 16.5673L462.549 21.4013L457.139 37.6595C457.138 37.6633 457.137 37.6671 457.136 37.6709C455.85 41.6712 458.885 45.8333 463.087 45.8333H478.913C483.115 45.8333 486.15 41.6712 484.864 37.6709C484.863 37.6671 484.862 37.6633 484.861 37.6595L479.719 22.2086C479.747 22.1849 479.774 22.1599 479.8 22.1337L482.406 19.528C482.782 19.8211 483.256 20.2391 483.773 20.8854C484.871 22.2574 486 24.4444 486 27.9166C485.998 28.0823 486.028 28.2467 486.09 28.4004C486.152 28.5541 486.243 28.694 486.36 28.812C486.476 28.93 486.615 29.0236 486.767 29.0876C486.92 29.1515 487.084 29.1844 487.25 29.1844C487.416 29.1844 487.58 29.1515 487.732 29.0876C487.885 29.0236 488.024 28.93 488.14 28.812C488.256 28.694 488.348 28.5541 488.41 28.4004C488.472 28.2467 488.502 28.0823 488.5 27.9166C488.5 23.8888 487.129 21.0758 485.727 19.3229C484.324 17.5699 482.808 16.7985 482.808 16.7985C482.574 16.6814 482.308 16.641 482.049 16.6831C481.791 16.7251 481.552 16.8475 481.366 17.0328L479.343 19.0559V17.7246C479.343 16.2595 478.235 15.0066 476.783 14.8291C468.555 13.8234 463.764 13.4946 461.498 13.387ZM462.193 15.9602C464.528 16.0823 468.744 16.364 476.48 17.3095C476.691 17.3354 476.843 17.5029 476.843 17.7246V20H464.623L462.193 15.9602ZM464.818 22.5H477.182L479.677 30H462.323L464.818 22.5ZM461.492 32.5H480.508L482.484 38.4375C483.272 40.8915 481.491 43.3333 478.913 43.3333H463.087C460.509 43.3333 458.728 40.8915 459.516 38.4375V38.4358L461.492 32.5Z" fill="#FBEEE4" fill-opacity="0.1"/>
<path fill-rule="evenodd" clip-rule="evenodd" d="M147.63 65.7467C148.129 65.9086 148.468 66.3719 148.47 66.8965C148.48 67.1267 148.481 67.3141 148.481 67.3141C148.481 67.3141 148.473 73.7029 140.908 79.5841C137.831 81.9766 135.162 85.8657 134.465 89.5018C134.373 89.988 133.997 90.3711 133.512 90.4708C133.027 90.5705 132.53 90.3674 132.254 89.956C130.098 86.7613 127.653 80.7909 131.73 73.7208C135.406 67.3461 142.194 64.0862 147.63 65.7467ZM146.02 67.7552C141.343 67.1752 136.755 70.0166 133.895 74.9708C131.623 78.9058 132.062 83.3743 133.176 86.3297C134.095 83.5915 135.888 80.3202 139.374 77.6101C143.815 74.157 145.543 69.6606 146.02 67.7552Z" fill="#FBEEE4" fill-opacity="0.1"/>
<path fill-rule="evenodd" clip-rule="evenodd" d="M136.975 93.8867C136.453 93.7198 136.098 93.2362 136.096 92.6887C136.086 92.4755 136.085 92.3074 136.085 92.3074C136.085 92.3074 136.093 85.9186 143.657 80.0374C146.707 77.6665 149.355 73.8255 150.081 70.2183C150.182 69.7155 150.575 69.3222 151.079 69.2239C151.583 69.1251 152.096 69.3398 152.379 69.7679C154.518 72.9865 156.869 78.9054 152.835 85.9007C149.168 92.2594 142.405 95.5191 136.975 93.8867ZM138.545 91.8663C143.223 92.4464 147.81 89.6049 150.67 84.6507C152.942 80.7157 152.504 76.2473 151.39 73.2918C150.47 76.03 148.677 79.3013 145.191 82.0115C140.75 85.4645 139.023 89.9609 138.545 91.8663Z" fill="#FBEEE4" fill-opacity="0.1"/>
<path fill-rule="evenodd" clip-rule="evenodd" d="M699.63 65.7467C700.129 65.9086 700.468 66.3719 700.47 66.8965C700.48 67.1267 700.481 67.3141 700.481 67.3141C700.481 67.3141 700.473 73.7029 692.908 79.5841C689.831 81.9766 687.162 85.8657 686.465 89.5018C686.373 89.988 685.997 90.3711 685.512 90.4708C685.027 90.5705 684.53 90.3674 684.254 89.956C682.098 86.7613 679.653 80.7909 683.73 73.7208C687.406 67.3461 694.194 64.0862 699.63 65.7467ZM698.02 67.7552C693.343 67.1752 688.755 70.0166 685.895 74.9708C683.623 78.9058 684.061 83.3743 685.175 86.3297C686.095 83.5915 687.888 80.3202 691.374 77.6101C695.815 74.157 697.543 69.6606 698.02 67.7552Z" fill="#FBEEE4" fill-opacity="0.1"/>
<path fill-rule="evenodd" clip-rule="evenodd" d="M688.975 93.8867C688.453 93.7198 688.098 93.2362 688.096 92.6887C688.086 92.4755 688.085 92.3074 688.085 92.3074C688.085 92.3074 688.093 85.9186 695.657 80.0374C698.707 77.6665 701.355 73.8255 702.081 70.2183C702.182 69.7155 702.575 69.3222 703.079 69.2239C703.583 69.1251 704.096 69.3398 704.379 69.7679C706.518 72.9865 708.869 78.9054 704.835 85.9007C701.168 92.2594 694.405 95.5191 688.975 93.8867ZM690.545 91.8663C695.223 92.4464 699.81 89.6049 702.67 84.6507C704.942 80.7157 704.504 76.2473 703.39 73.2918C702.47 76.03 700.677 79.3013 697.191 82.0115C692.75 85.4645 691.023 89.9609 690.545 91.8663Z" fill="#FBEEE4" fill-opacity="0.1"/>
<path fill-rule="evenodd" clip-rule="evenodd" d="M1251.63 65.7467C1252.13 65.9086 1252.47 66.3719 1252.47 66.8965C1252.48 67.1267 1252.48 67.3141 1252.48 67.3141C1252.48 67.3141 1252.47 73.7029 1244.91 79.5841C1241.83 81.9766 1239.16 85.8657 1238.46 89.5018C1238.37 89.988 1238 90.3711 1237.51 90.4708C1237.03 90.5705 1236.53 90.3674 1236.25 89.956C1234.1 86.7613 1231.65 80.7909 1235.73 73.7208C1239.41 67.3461 1246.19 64.0862 1251.63 65.7467ZM1250.02 67.7552C1245.34 67.1752 1240.76 70.0166 1237.9 74.9708C1235.62 78.9058 1236.06 83.3743 1237.18 86.3297C1238.1 83.5915 1239.89 80.3202 1243.37 77.6101C1247.82 74.157 1249.54 69.6606 1250.02 67.7552Z" fill="#FBEEE4" fill-opacity="0.1"/>
<path fill-rule="evenodd" clip-rule="evenodd" d="M1240.97 93.8867C1240.45 93.7198 1240.1 93.2362 1240.1 92.6887C1240.09 92.4755 1240.08 92.3074 1240.08 92.3074C1240.08 92.3074 1240.09 85.9186 1247.66 80.0374C1250.71 77.6665 1253.36 73.8255 1254.08 70.2183C1254.18 69.7155 1254.58 69.3222 1255.08 69.2239C1255.58 69.1251 1256.1 69.3398 1256.38 69.7679C1258.52 72.9865 1260.87 78.9054 1256.84 85.9007C1253.17 92.2594 1246.4 95.5191 1240.97 93.8867ZM1242.55 91.8663C1247.22 92.4464 1251.81 89.6049 1254.67 84.6507C1256.94 80.7157 1256.5 76.2473 1255.39 73.2918C1254.47 76.03 1252.68 79.3013 1249.19 82.0115C1244.75 85.4645 1243.02 89.9609 1242.55 91.8663Z" fill="#FBEEE4" fill-opacity="0.1"/>
<path fill-rule="evenodd" clip-rule="evenodd" d="M317.63 31.7467C318.129 31.9086 318.468 32.3719 318.47 32.8965C318.48 33.1267 318.481 33.3141 318.481 33.3141C318.481 33.3141 318.473 39.7029 310.908 45.5841C307.831 47.9766 305.162 51.8657 304.465 55.5018C304.373 55.988 303.997 56.3711 303.512 56.4708C303.027 56.5705 302.53 56.3674 302.254 55.956C300.098 52.7613 297.653 46.7909 301.73 39.7208C305.406 33.3461 312.194 30.0862 317.63 31.7467ZM316.02 33.7552C311.343 33.1752 306.755 36.0166 303.895 40.9708C301.623 44.9058 302.062 49.3743 303.176 52.3297C304.095 49.5915 305.888 46.3202 309.374 43.6101C313.815 40.157 315.543 35.6606 316.02 33.7552Z" fill="#FBEEE4" fill-opacity="0.1"/>
<path fill-rule="evenodd" clip-rule="evenodd" d="M306.975 59.8867C306.453 59.7198 306.098 59.2362 306.096 58.6887C306.086 58.4755 306.085 58.3074 306.085 58.3074C306.085 58.3074 306.093 51.9186 313.657 46.0374C316.707 43.6665 319.355 39.8255 320.081 36.2183C320.182 35.7155 320.575 35.3222 321.079 35.2239C321.583 35.1251 322.096 35.3398 322.379 35.7679C324.518 38.9865 326.869 44.9054 322.835 51.9007C319.168 58.2594 312.405 61.5191 306.975 59.8867ZM308.545 57.8663C313.223 58.4464 317.81 55.6049 320.67 50.6507C322.942 46.7157 322.504 42.2473 321.39 39.2918C320.47 42.03 318.677 45.3013 315.191 48.0115C310.75 51.4645 309.023 55.9609 308.545 57.8663Z" fill="#FBEEE4" fill-opacity="0.1"/>
<path fill-rule="evenodd" clip-rule="evenodd" d="M869.63 31.7467C870.129 31.9086 870.467 32.3719 870.47 32.8965C870.48 33.1267 870.481 33.3141 870.481 33.3141C870.481 33.3141 870.473 39.7029 862.908 45.5841C859.831 47.9766 857.162 51.8657 856.465 55.5018C856.373 55.988 855.997 56.3711 855.512 56.4708C855.027 56.5705 854.53 56.3674 854.254 55.956C852.098 52.7613 849.653 46.7909 853.73 39.7208C857.406 33.3461 864.194 30.0862 869.63 31.7467ZM868.02 33.7552C863.343 33.1752 858.755 36.0166 855.895 40.9708C853.623 44.9058 854.061 49.3743 855.175 52.3297C856.095 49.5915 857.888 46.3202 861.374 43.6101C865.815 40.157 867.542 35.6606 868.02 33.7552Z" fill="#FBEEE4" fill-opacity="0.1"/>
<path fill-rule="evenodd" clip-rule="evenodd" d="M858.975 59.8867C858.453 59.7198 858.098 59.2362 858.096 58.6887C858.086 58.4755 858.085 58.3074 858.085 58.3074C858.085 58.3074 858.093 51.9186 865.657 46.0374C868.707 43.6665 871.355 39.8255 872.081 36.2183C872.182 35.7155 872.575 35.3222 873.079 35.2239C873.583 35.1251 874.096 35.3398 874.379 35.7679C876.518 38.9865 878.869 44.9054 874.835 51.9007C871.168 58.2594 864.405 61.5191 858.975 59.8867ZM860.545 57.8663C865.223 58.4464 869.81 55.6049 872.67 50.6507C874.942 46.7157 874.504 42.2473 873.39 39.2918C872.47 42.03 870.677 45.3013 867.191 48.0115C862.75 51.4645 861.023 55.9609 860.545 57.8663Z" fill="#FBEEE4" fill-opacity="0.1"/>
<path fill-rule="evenodd" clip-rule="evenodd" d="M1421.63 31.7467C1422.13 31.9086 1422.47 32.3719 1422.47 32.8965C1422.48 33.1267 1422.48 33.3141 1422.48 33.3141C1422.48 33.3141 1422.47 39.7029 1414.91 45.5841C1411.83 47.9766 1409.16 51.8657 1408.46 55.5018C1408.37 55.988 1408 56.3711 1407.51 56.4708C1407.03 56.5705 1406.53 56.3674 1406.25 55.956C1404.1 52.7613 1401.65 46.7909 1405.73 39.7208C1409.41 33.3461 1416.19 30.0862 1421.63 31.7467ZM1420.02 33.7552C1415.34 33.1752 1410.76 36.0166 1407.9 40.9708C1405.62 44.9058 1406.06 49.3743 1407.18 52.3297C1408.1 49.5915 1409.89 46.3202 1413.37 43.6101C1417.82 40.157 1419.54 35.6606 1420.02 33.7552Z" fill="#FBEEE4" fill-opacity="0.1"/>
<path fill-rule="evenodd" clip-rule="evenodd" d="M1410.97 59.8867C1410.45 59.7198 1410.1 59.2362 1410.1 58.6887C1410.09 58.4755 1410.08 58.3074 1410.08 58.3074C1410.08 58.3074 1410.09 51.9186 1417.66 46.0374C1420.71 43.6665 1423.36 39.8255 1424.08 36.2183C1424.18 35.7155 1424.58 35.3222 1425.08 35.2239C1425.58 35.1251 1426.1 35.3398 1426.38 35.7679C1428.52 38.9865 1430.87 44.9054 1426.84 51.9007C1423.17 58.2594 1416.4 61.5191 1410.97 59.8867ZM1412.55 57.8663C1417.22 58.4464 1421.81 55.6049 1424.67 50.6507C1426.94 46.7157 1426.5 42.2473 1425.39 39.2918C1424.47 42.03 1422.68 45.3013 1419.19 48.0115C1414.75 51.4645 1413.02 55.9609 1412.55 57.8663Z" fill="#FBEEE4" fill-opacity="0.1"/>
<path fill-rule="evenodd" clip-rule="evenodd" d="M534.63 35.7467C535.129 35.9086 535.468 36.3719 535.47 36.8965C535.48 37.1267 535.481 37.3141 535.481 37.3141C535.481 37.3141 535.473 43.7029 527.908 49.5841C524.831 51.9766 522.162 55.8657 521.465 59.5018C521.373 59.988 520.997 60.3711 520.512 60.4708C520.027 60.5705 519.53 60.3674 519.254 59.956C517.098 56.7613 514.653 50.7909 518.73 43.7208C522.406 37.3461 529.194 34.0862 534.63 35.7467ZM533.02 37.7552C528.343 37.1752 523.755 40.0166 520.895 44.9708C518.623 48.9058 519.061 53.3743 520.175 56.3297C521.095 53.5915 522.888 50.3202 526.374 47.6101C530.815 44.157 532.543 39.6606 533.02 37.7552Z" fill="#FBEEE4" fill-opacity="0.1"/>
<path fill-rule="evenodd" clip-rule="evenodd" d="M523.975 63.8867C523.453 63.7198 523.098 63.2362 523.096 62.6887C523.086 62.4755 523.085 62.3074 523.085 62.3074C523.085 62.3074 523.093 55.9186 530.657 50.0374C533.707 47.6665 536.355 43.8255 537.081 40.2183C537.182 39.7155 537.575 39.3222 538.079 39.2239C538.583 39.1251 539.096 39.3398 539.379 39.7679C541.518 42.9865 543.869 48.9054 539.835 55.9007C536.168 62.2594 529.405 65.5191 523.975 63.8867ZM525.545 61.8663C530.223 62.4464 534.81 59.6049 537.67 54.6507C539.942 50.7157 539.504 46.2473 538.39 43.2918C537.47 46.03 535.677 49.3013 532.191 52.0115C527.75 55.4645 526.023 59.9609 525.545 61.8663Z" fill="#FBEEE4" fill-opacity="0.1"/>
<path fill-rule="evenodd" clip-rule="evenodd" d="M1086.63 35.7467C1087.13 35.9086 1087.47 36.3719 1087.47 36.8965C1087.48 37.1267 1087.48 37.3141 1087.48 37.3141C1087.48 37.3141 1087.47 43.7029 1079.91 49.5841C1076.83 51.9766 1074.16 55.8657 1073.46 59.5018C1073.37 59.988 1073 60.3711 1072.51 60.4708C1072.03 60.5705 1071.53 60.3674 1071.25 59.956C1069.1 56.7613 1066.65 50.7909 1070.73 43.7208C1074.41 37.3461 1081.19 34.0862 1086.63 35.7467ZM1085.02 37.7552C1080.34 37.1752 1075.76 40.0166 1072.9 44.9708C1070.62 48.9058 1071.06 53.3743 1072.18 56.3297C1073.1 53.5915 1074.89 50.3202 1078.37 47.6101C1082.82 44.157 1084.54 39.6606 1085.02 37.7552Z" fill="#FBEEE4" fill-opacity="0.1"/>
<path fill-rule="evenodd" clip-rule="evenodd" d="M1075.97 63.8867C1075.45 63.7198 1075.1 63.2362 1075.1 62.6887C1075.09 62.4755 1075.08 62.3074 1075.08 62.3074C1075.08 62.3074 1075.09 55.9186 1082.66 50.0374C1085.71 47.6665 1088.36 43.8255 1089.08 40.2183C1089.18 39.7155 1089.58 39.3222 1090.08 39.2239C1090.58 39.1251 1091.1 39.3398 1091.38 39.7679C1093.52 42.9865 1095.87 48.9054 1091.84 55.9007C1088.17 62.2594 1081.4 65.5191 1075.97 63.8867ZM1077.55 61.8663C1082.22 62.4464 1086.81 59.6049 1089.67 54.6507C1091.94 50.7157 1091.5 46.2473 1090.39 43.2918C1089.47 46.03 1087.68 49.3013 1084.19 52.0115C1079.75 55.4645 1078.02 59.9609 1077.55 61.8663Z" fill="#FBEEE4" fill-opacity="0.1"/>
<path fill-rule="evenodd" clip-rule="evenodd" d="M1022.63 21.7467C1023.13 21.9086 1023.47 22.3719 1023.47 22.8965C1023.48 23.1267 1023.48 23.3141 1023.48 23.3141C1023.48 23.3141 1023.47 29.7029 1015.91 35.5841C1012.83 37.9766 1010.16 41.8657 1009.46 45.5018C1009.37 45.988 1009 46.3711 1008.51 46.4708C1008.03 46.5705 1007.53 46.3674 1007.25 45.956C1005.1 42.7613 1002.65 36.7909 1006.73 29.7208C1010.41 23.3461 1017.19 20.0862 1022.63 21.7467ZM1021.02 23.7552C1016.34 23.1752 1011.76 26.0166 1008.9 30.9708C1006.62 34.9058 1007.06 39.3743 1008.18 42.3297C1009.1 39.5915 1010.89 36.3202 1014.37 33.6101C1018.82 30.157 1020.54 25.6606 1021.02 23.7552Z" fill="#FBEEE4" fill-opacity="0.1"/>
<path fill-rule="evenodd" clip-rule="evenodd" d="M1011.97 49.8867C1011.45 49.7198 1011.1 49.2362 1011.1 48.6887C1011.09 48.4755 1011.08 48.3074 1011.08 48.3074C1011.08 48.3074 1011.09 41.9186 1018.66 36.0374C1021.71 33.6665 1024.36 29.8255 1025.08 26.2183C1025.18 25.7155 1025.58 25.3222 1026.08 25.2239C1026.58 25.1251 1027.1 25.3398 1027.38 25.7679C1029.52 28.9865 1031.87 34.9054 1027.84 41.9007C1024.17 48.2594 1017.4 51.5191 1011.97 49.8867ZM1013.55 47.8663C1018.22 48.4464 1022.81 45.6049 1025.67 40.6507C1027.94 36.7157 1027.5 32.2473 1026.39 29.2918C1025.47 32.03 1023.68 35.3013 1020.19 38.0115C1015.75 41.4645 1014.02 45.9609 1013.55 47.8663Z" fill="#FBEEE4" fill-opacity="0.1"/>
<path fill-rule="evenodd" clip-rule="evenodd" d="M52.2045 78.8879C52.7342 79.0363 53.1008 79.5181 53.103 80.0678C53.1168 80.1029 53.117 80.1238 53.117 80.1238C53.117 80.1238 53.1112 84.8328 47.5355 89.1676C45.4626 90.7789 43.6411 93.3119 42.9505 95.7813C42.8153 96.2587 42.4088 96.6091 41.9172 96.6737C41.4255 96.7376 40.9425 96.5035 40.6891 96.0774C39.2643 93.5994 38.0561 89.5533 40.7707 84.846C43.4166 80.2585 48.2481 77.8595 52.2045 78.8879ZM51.3032 80.4489C47.8558 80.0214 44.4747 82.1157 42.3665 85.7673C40.692 88.6677 41.015 91.9612 41.8361 94.1395C42.5141 92.1213 43.8354 89.7102 46.4047 87.7126C49.6785 85.1674 50.9514 81.8533 51.3032 80.4489Z" fill="#FBEEE4" fill-opacity="0.1"/>
<path fill-rule="evenodd" clip-rule="evenodd" d="M44.9221 99.7886C44.3764 99.6384 43.9971 99.1429 43.9947 98.5766C43.9807 98.5568 43.9803 98.5454 43.9803 98.5454C43.9803 98.5454 43.9862 93.8364 49.5619 89.5016C51.6542 87.8749 53.4903 85.3093 54.1659 82.8179C54.2939 82.353 54.686 82.0092 55.1641 81.9431C55.6415 81.8773 56.1124 82.1018 56.3613 82.5147C57.807 84.984 59.07 89.0659 56.3266 93.8232C53.6872 98.3995 48.8731 100.798 44.9221 99.7886ZM45.7941 98.2202C49.2416 98.6478 52.6226 96.5534 54.7308 92.9019C56.4054 90.0015 56.0823 86.708 55.2612 84.5296C54.5833 86.5478 53.2619 88.959 50.6926 90.9566C47.4189 93.5017 46.1459 96.8158 45.7941 98.2202Z" fill="#FBEEE4" fill-opacity="0.1"/>
<path fill-rule="evenodd" clip-rule="evenodd" d="M37.9553 99.6985C38.4991 99.6916 38.9722 99.3248 39.1154 98.8004C39.1391 98.7641 39.1453 98.741 39.1453 98.741C39.1453 98.741 40.3585 94.1904 36.0947 88.561C34.5147 86.4747 33.4135 83.5691 33.3785 81.011C33.3691 80.5104 33.0635 80.0635 32.5997 79.8735C32.1366 79.6835 31.6047 79.7872 31.2466 80.1372C29.236 82.1666 27.0435 85.7547 28.4422 90.9841C29.8116 96.1047 33.8635 99.6741 37.9553 99.6985ZM40.7922 96.9629C41.2766 97.2404 41.6748 97.3566 42.2479 97.2591C42.006 97.8373 41.6478 98.2648 41.3053 98.5685C41.1491 98.6916 40.9335 98.7085 40.7604 98.611C40.5866 98.5141 40.4885 98.3216 40.5122 98.1241C40.5279 97.8091 40.6035 97.4348 40.7922 96.9629ZM37.4772 97.9573C34.0366 97.4779 31.3135 94.5804 30.2222 90.5072C29.3553 87.2722 30.5197 84.1747 31.8766 82.2829C32.0091 84.4079 32.661 87.0791 34.626 89.6735C37.1297 92.9791 37.5016 96.5098 37.4772 97.9573ZM38.6685 89.5191C38.4997 89.2572 38.3229 89.0041 38.1397 88.7622C33.8754 83.1322 35.0891 78.5822 35.0891 78.5822C35.0891 78.5822 35.096 78.5566 35.1072 78.5147C35.2503 77.9904 35.7197 77.6204 36.2635 77.6047C38.6879 77.6335 41.0997 78.8878 42.9485 80.9729C42.5004 81.4091 42.0935 81.8354 41.726 82.2572C40.4066 80.6735 38.6954 79.6354 36.7566 79.3654C36.7347 80.7072 37.0528 83.8404 39.0947 86.9241C38.8672 87.741 38.731 88.5966 38.6685 89.5191Z" fill="#FBEEE4" fill-opacity="0.1"/>
<path fill-rule="evenodd" clip-rule="evenodd" d="M604.205 78.8879C604.734 79.0363 605.101 79.5181 605.103 80.0678C605.117 80.1029 605.117 80.1238 605.117 80.1238C605.117 80.1238 605.111 84.8328 599.536 89.1676C597.463 90.7789 595.641 93.3119 594.951 95.7813C594.815 96.2587 594.409 96.6091 593.917 96.6737C593.426 96.7376 592.943 96.5035 592.689 96.0774C591.264 93.5994 590.056 89.5533 592.771 84.846C595.417 80.2585 600.248 77.8595 604.205 78.8879ZM603.303 80.4489C599.856 80.0214 596.475 82.1157 594.367 85.7673C592.692 88.6677 593.015 91.9612 593.836 94.1395C594.514 92.1213 595.835 89.7102 598.405 87.7126C601.678 85.1674 602.951 81.8533 603.303 80.4489Z" fill="#FBEEE4" fill-opacity="0.1"/>
<path fill-rule="evenodd" clip-rule="evenodd" d="M596.922 99.7886C596.376 99.6384 595.997 99.1429 595.995 98.5766C595.981 98.5568 595.98 98.5454 595.98 98.5454C595.98 98.5454 595.986 93.8364 601.562 89.5016C603.654 87.8749 605.49 85.3093 606.166 82.8179C606.294 82.353 606.686 82.0092 607.164 81.9431C607.641 81.8773 608.112 82.1018 608.361 82.5147C609.807 84.984 611.07 89.0659 608.327 93.8232C605.687 98.3995 600.873 100.798 596.922 99.7886ZM597.794 98.2202C601.242 98.6478 604.623 96.5534 606.731 92.9019C608.405 90.0015 608.082 86.708 607.261 84.5296C606.583 86.5478 605.262 88.959 602.693 90.9566C599.419 93.5017 598.146 96.8158 597.794 98.2202Z" fill="#FBEEE4" fill-opacity="0.1"/>
<path fill-rule="evenodd" clip-rule="evenodd" d="M589.955 99.6985C590.499 99.6916 590.972 99.3248 591.115 98.8004C591.139 98.7641 591.145 98.741 591.145 98.741C591.145 98.741 592.358 94.1904 588.095 88.561C586.515 86.4747 585.413 83.5691 585.378 81.011C585.369 80.5104 585.063 80.0635 584.6 79.8735C584.137 79.6835 583.605 79.7872 583.247 80.1372C581.236 82.1666 579.043 85.7547 580.442 90.9841C581.812 96.1047 585.863 99.6741 589.955 99.6985ZM592.792 96.9629C593.277 97.2404 593.675 97.3566 594.248 97.2591C594.006 97.8373 593.648 98.2648 593.305 98.5685C593.149 98.6916 592.933 98.7085 592.76 98.611C592.587 98.5141 592.488 98.3216 592.512 98.1241C592.528 97.8091 592.603 97.4348 592.792 96.9629ZM589.477 97.9573C586.037 97.4779 583.313 94.5804 582.222 90.5072C581.355 87.2722 582.52 84.1747 583.877 82.2829C584.009 84.4079 584.661 87.0791 586.626 89.6735C589.13 92.9791 589.502 96.5098 589.477 97.9573ZM590.668 89.5191C590.5 89.2572 590.323 89.0041 590.14 88.7622C585.875 83.1322 587.089 78.5822 587.089 78.5822C587.089 78.5822 587.096 78.5566 587.107 78.5147C587.25 77.9904 587.72 77.6204 588.263 77.6047C590.688 77.6335 593.1 78.8878 594.948 80.9729C594.5 81.4091 594.093 81.8354 593.726 82.2572C592.407 80.6735 590.695 79.6354 588.757 79.3654C588.735 80.7072 589.053 83.8404 591.095 86.9241C590.867 87.741 590.731 88.5966 590.668 89.5191Z" fill="#FBEEE4" fill-opacity="0.1"/>
<path fill-rule="evenodd" clip-rule="evenodd" d="M1156.2 78.8879C1156.73 79.0363 1157.1 79.5181 1157.1 80.0678C1157.12 80.1029 1157.12 80.1238 1157.12 80.1238C1157.12 80.1238 1157.11 84.8328 1151.54 89.1676C1149.46 90.7789 1147.64 93.3119 1146.95 95.7813C1146.82 96.2587 1146.41 96.6091 1145.92 96.6737C1145.43 96.7376 1144.94 96.5035 1144.69 96.0774C1143.26 93.5994 1142.06 89.5533 1144.77 84.846C1147.42 80.2585 1152.25 77.8595 1156.2 78.8879ZM1155.3 80.4489C1151.86 80.0214 1148.47 82.1157 1146.37 85.7673C1144.69 88.6677 1145.02 91.9612 1145.84 94.1395C1146.51 92.1213 1147.84 89.7102 1150.4 87.7126C1153.68 85.1674 1154.95 81.8533 1155.3 80.4489Z" fill="#FBEEE4" fill-opacity="0.1"/>
<path fill-rule="evenodd" clip-rule="evenodd" d="M1148.92 99.7886C1148.38 99.6384 1148 99.1429 1147.99 98.5766C1147.98 98.5568 1147.98 98.5454 1147.98 98.5454C1147.98 98.5454 1147.99 93.8364 1153.56 89.5016C1155.65 87.8749 1157.49 85.3093 1158.17 82.8179C1158.29 82.353 1158.69 82.0092 1159.16 81.9431C1159.64 81.8773 1160.11 82.1018 1160.36 82.5147C1161.81 84.984 1163.07 89.0659 1160.33 93.8232C1157.69 98.3995 1152.87 100.798 1148.92 99.7886ZM1149.79 98.2202C1153.24 98.6478 1156.62 96.5534 1158.73 92.9019C1160.41 90.0015 1160.08 86.708 1159.26 84.5296C1158.58 86.5478 1157.26 88.959 1154.69 90.9566C1151.42 93.5017 1150.15 96.8158 1149.79 98.2202Z" fill="#FBEEE4" fill-opacity="0.1"/>
<path fill-rule="evenodd" clip-rule="evenodd" d="M1141.96 99.6985C1142.5 99.6916 1142.97 99.3248 1143.12 98.8004C1143.14 98.7641 1143.15 98.741 1143.15 98.741C1143.15 98.741 1144.36 94.1904 1140.09 88.561C1138.51 86.4747 1137.41 83.5691 1137.38 81.011C1137.37 80.5104 1137.06 80.0635 1136.6 79.8735C1136.14 79.6835 1135.6 79.7872 1135.25 80.1372C1133.24 82.1666 1131.04 85.7547 1132.44 90.9841C1133.81 96.1047 1137.86 99.6741 1141.96 99.6985ZM1144.79 96.9629C1145.28 97.2404 1145.67 97.3566 1146.25 97.2591C1146.01 97.8373 1145.65 98.2648 1145.31 98.5685C1145.15 98.6916 1144.93 98.7085 1144.76 98.611C1144.59 98.5141 1144.49 98.3216 1144.51 98.1241C1144.53 97.8091 1144.6 97.4348 1144.79 96.9629ZM1141.48 97.9573C1138.04 97.4779 1135.31 94.5804 1134.22 90.5072C1133.36 87.2722 1134.52 84.1747 1135.88 82.2829C1136.01 84.4079 1136.66 87.0791 1138.63 89.6735C1141.13 92.9791 1141.5 96.5098 1141.48 97.9573ZM1142.67 89.5191C1142.5 89.2572 1142.32 89.0041 1142.14 88.7622C1137.88 83.1322 1139.09 78.5822 1139.09 78.5822C1139.09 78.5822 1139.1 78.5566 1139.11 78.5147C1139.25 77.9904 1139.72 77.6204 1140.26 77.6047C1142.69 77.6335 1145.1 78.8878 1146.95 80.9729C1146.5 81.4091 1146.09 81.8354 1145.73 82.2572C1144.41 80.6735 1142.7 79.6354 1140.76 79.3654C1140.73 80.7072 1141.05 83.8404 1143.09 86.9241C1142.87 87.741 1142.73 88.5966 1142.67 89.5191Z" fill="#FBEEE4" fill-opacity="0.1"/>
<path fill-rule="evenodd" clip-rule="evenodd" d="M194.204 22.8879C194.734 23.0363 195.101 23.5181 195.103 24.0678C195.117 24.1029 195.117 24.1238 195.117 24.1238C195.117 24.1238 195.111 28.8328 189.535 33.1676C187.463 34.7789 185.641 37.3119 184.95 39.7813C184.815 40.2587 184.409 40.6091 183.917 40.6737C183.425 40.7376 182.943 40.5035 182.689 40.0774C181.264 37.5994 180.056 33.5533 182.771 28.846C185.417 24.2585 190.248 21.8595 194.204 22.8879ZM193.303 24.4489C189.856 24.0214 186.475 26.1157 184.366 29.7673C182.692 32.6677 183.015 35.9612 183.836 38.1395C184.514 36.1213 185.835 33.7102 188.405 31.7126C191.678 29.1674 192.951 25.8533 193.303 24.4489Z" fill="#FBEEE4" fill-opacity="0.1"/>
<path fill-rule="evenodd" clip-rule="evenodd" d="M186.922 43.7886C186.376 43.6384 185.997 43.1429 185.995 42.5766C185.981 42.5568 185.98 42.5454 185.98 42.5454C185.98 42.5454 185.986 37.8364 191.562 33.5016C193.654 31.8749 195.49 29.3093 196.166 26.8179C196.294 26.353 196.686 26.0092 197.164 25.9431C197.641 25.8773 198.112 26.1018 198.361 26.5147C199.807 28.984 201.07 33.0659 198.327 37.8232C195.687 42.3995 190.873 44.7979 186.922 43.7886ZM187.794 42.2202C191.242 42.6478 194.623 40.5534 196.731 36.9019C198.405 34.0015 198.082 30.708 197.261 28.5296C196.583 30.5478 195.262 32.959 192.693 34.9566C189.419 37.5017 188.146 40.8158 187.794 42.2202Z" fill="#FBEEE4" fill-opacity="0.1"/>
<path fill-rule="evenodd" clip-rule="evenodd" d="M179.955 43.6985C180.499 43.6916 180.972 43.3248 181.115 42.8004C181.139 42.7641 181.145 42.741 181.145 42.741C181.145 42.741 182.358 38.1904 178.095 32.561C176.515 30.4747 175.413 27.5691 175.378 25.011C175.369 24.5104 175.063 24.0635 174.6 23.8735C174.137 23.6835 173.605 23.7872 173.247 24.1372C171.236 26.1666 169.043 29.7547 170.442 34.9841C171.812 40.1047 175.863 43.6741 179.955 43.6985ZM182.792 40.9629C183.277 41.2404 183.675 41.3566 184.248 41.2591C184.006 41.8373 183.648 42.2648 183.305 42.5685C183.149 42.6916 182.933 42.7085 182.76 42.611C182.587 42.5141 182.488 42.3216 182.512 42.1241C182.528 41.8091 182.603 41.4348 182.792 40.9629ZM179.477 41.9573C176.037 41.4779 173.313 38.5804 172.222 34.5072C171.355 31.2722 172.52 28.1747 173.877 26.2829C174.009 28.4079 174.661 31.0791 176.626 33.6735C179.13 36.9791 179.502 40.5098 179.477 41.9573ZM180.668 33.5191C180.5 33.2572 180.323 33.0041 180.14 32.7622C175.875 27.1322 177.089 22.5822 177.089 22.5822C177.089 22.5822 177.096 22.5566 177.107 22.5147C177.25 21.9904 177.72 21.6204 178.263 21.6047C180.688 21.6335 183.1 22.8878 184.948 24.9729C184.5 25.4091 184.093 25.8354 183.726 26.2572C182.407 24.6735 180.695 23.6354 178.757 23.3654C178.735 24.7072 179.053 27.8404 181.095 30.9241C180.867 31.741 180.731 32.5966 180.668 33.5191Z" fill="#FBEEE4" fill-opacity="0.1"/>
<path fill-rule="evenodd" clip-rule="evenodd" d="M746.205 22.8879C746.734 23.0363 747.101 23.5181 747.103 24.0678C747.117 24.1029 747.117 24.1238 747.117 24.1238C747.117 24.1238 747.111 28.8328 741.536 33.1676C739.463 34.7789 737.641 37.3119 736.951 39.7813C736.815 40.2587 736.409 40.6091 735.917 40.6737C735.426 40.7376 734.943 40.5035 734.689 40.0774C733.264 37.5994 732.056 33.5533 734.771 28.846C737.417 24.2585 742.248 21.8595 746.205 22.8879ZM745.303 24.4489C741.856 24.0214 738.475 26.1157 736.367 29.7673C734.692 32.6677 735.015 35.9612 735.836 38.1395C736.514 36.1213 737.835 33.7102 740.405 31.7126C743.678 29.1674 744.951 25.8533 745.303 24.4489Z" fill="#FBEEE4" fill-opacity="0.1"/>
<path fill-rule="evenodd" clip-rule="evenodd" d="M738.922 43.7886C738.376 43.6384 737.997 43.1429 737.995 42.5766C737.981 42.5568 737.98 42.5454 737.98 42.5454C737.98 42.5454 737.986 37.8364 743.562 33.5016C745.654 31.8749 747.49 29.3093 748.166 26.8179C748.294 26.353 748.686 26.0092 749.164 25.9431C749.641 25.8773 750.112 26.1018 750.361 26.5147C751.807 28.984 753.07 33.0659 750.327 37.8232C747.687 42.3995 742.873 44.7979 738.922 43.7886ZM739.794 42.2202C743.242 42.6478 746.623 40.5534 748.731 36.9019C750.405 34.0015 750.082 30.708 749.261 28.5296C748.583 30.5478 747.262 32.959 744.693 34.9566C741.419 37.5017 740.146 40.8158 739.794 42.2202Z" fill="#FBEEE4" fill-opacity="0.1"/>
<path fill-rule="evenodd" clip-rule="evenodd" d="M731.955 43.6985C732.499 43.6916 732.972 43.3248 733.115 42.8004C733.139 42.7641 733.145 42.741 733.145 42.741C733.145 42.741 734.358 38.1904 730.095 32.561C728.515 30.4747 727.413 27.5691 727.378 25.011C727.369 24.5104 727.063 24.0635 726.6 23.8735C726.137 23.6835 725.605 23.7872 725.247 24.1372C723.236 26.1666 721.043 29.7547 722.442 34.9841C723.812 40.1047 727.863 43.6741 731.955 43.6985ZM734.792 40.9629C735.277 41.2404 735.675 41.3566 736.248 41.2591C736.006 41.8373 735.648 42.2648 735.305 42.5685C735.149 42.6916 734.933 42.7085 734.76 42.611C734.587 42.5141 734.488 42.3216 734.512 42.1241C734.528 41.8091 734.603 41.4348 734.792 40.9629ZM731.477 41.9573C728.037 41.4779 725.313 38.5804 724.222 34.5072C723.355 31.2722 724.52 28.1747 725.877 26.2829C726.009 28.4079 726.661 31.0791 728.626 33.6735C731.13 36.9791 731.502 40.5098 731.477 41.9573ZM732.668 33.5191C732.5 33.2572 732.323 33.0041 732.14 32.7622C727.875 27.1322 729.089 22.5822 729.089 22.5822C729.089 22.5822 729.096 22.5566 729.107 22.5147C729.25 21.9904 729.72 21.6204 730.263 21.6047C732.688 21.6335 735.1 22.8878 736.948 24.9729C736.5 25.4091 736.093 25.8354 735.726 26.2572C734.407 24.6735 732.695 23.6354 730.757 23.3654C730.735 24.7072 731.053 27.8404 733.095 30.9241C732.867 31.741 732.731 32.5966 732.668 33.5191Z" fill="#FBEEE4" fill-opacity="0.1"/>
<path fill-rule="evenodd" clip-rule="evenodd" d="M1298.2 22.8879C1298.73 23.0363 1299.1 23.5181 1299.1 24.0678C1299.12 24.1029 1299.12 24.1238 1299.12 24.1238C1299.12 24.1238 1299.11 28.8328 1293.54 33.1676C1291.46 34.7789 1289.64 37.3119 1288.95 39.7813C1288.82 40.2587 1288.41 40.6091 1287.92 40.6737C1287.43 40.7376 1286.94 40.5035 1286.69 40.0774C1285.26 37.5994 1284.06 33.5533 1286.77 28.846C1289.42 24.2585 1294.25 21.8595 1298.2 22.8879ZM1297.3 24.4489C1293.86 24.0214 1290.47 26.1157 1288.37 29.7673C1286.69 32.6677 1287.02 35.9612 1287.84 38.1395C1288.51 36.1213 1289.84 33.7102 1292.4 31.7126C1295.68 29.1674 1296.95 25.8533 1297.3 24.4489Z" fill="#FBEEE4" fill-opacity="0.1"/>
<path fill-rule="evenodd" clip-rule="evenodd" d="M1290.92 43.7886C1290.38 43.6384 1290 43.1429 1289.99 42.5766C1289.98 42.5568 1289.98 42.5454 1289.98 42.5454C1289.98 42.5454 1289.99 37.8364 1295.56 33.5016C1297.65 31.8749 1299.49 29.3093 1300.17 26.8179C1300.29 26.353 1300.69 26.0092 1301.16 25.9431C1301.64 25.8773 1302.11 26.1018 1302.36 26.5147C1303.81 28.984 1305.07 33.0659 1302.33 37.8232C1299.69 42.3995 1294.87 44.7979 1290.92 43.7886ZM1291.79 42.2202C1295.24 42.6478 1298.62 40.5534 1300.73 36.9019C1302.41 34.0015 1302.08 30.708 1301.26 28.5296C1300.58 30.5478 1299.26 32.959 1296.69 34.9566C1293.42 37.5017 1292.15 40.8158 1291.79 42.2202Z" fill="#FBEEE4" fill-opacity="0.1"/>
<path fill-rule="evenodd" clip-rule="evenodd" d="M1283.96 43.6985C1284.5 43.6916 1284.97 43.3248 1285.12 42.8004C1285.14 42.7641 1285.15 42.741 1285.15 42.741C1285.15 42.741 1286.36 38.1904 1282.09 32.561C1280.51 30.4747 1279.41 27.5691 1279.38 25.011C1279.37 24.5104 1279.06 24.0635 1278.6 23.8735C1278.14 23.6835 1277.6 23.7872 1277.25 24.1372C1275.24 26.1666 1273.04 29.7547 1274.44 34.9841C1275.81 40.1047 1279.86 43.6741 1283.96 43.6985ZM1286.79 40.9629C1287.28 41.2404 1287.67 41.3566 1288.25 41.2591C1288.01 41.8373 1287.65 42.2648 1287.31 42.5685C1287.15 42.6916 1286.93 42.7085 1286.76 42.611C1286.59 42.5141 1286.49 42.3216 1286.51 42.1241C1286.53 41.8091 1286.6 41.4348 1286.79 40.9629ZM1283.48 41.9573C1280.04 41.4779 1277.31 38.5804 1276.22 34.5072C1275.36 31.2722 1276.52 28.1747 1277.88 26.2829C1278.01 28.4079 1278.66 31.0791 1280.63 33.6735C1283.13 36.9791 1283.5 40.5098 1283.48 41.9573ZM1284.67 33.5191C1284.5 33.2572 1284.32 33.0041 1284.14 32.7622C1279.88 27.1322 1281.09 22.5822 1281.09 22.5822C1281.09 22.5822 1281.1 22.5566 1281.11 22.5147C1281.25 21.9904 1281.72 21.6204 1282.26 21.6047C1284.69 21.6335 1287.1 22.8878 1288.95 24.9729C1288.5 25.4091 1288.09 25.8354 1287.73 26.2572C1286.41 24.6735 1284.7 23.6354 1282.76 23.3654C1282.73 24.7072 1283.05 27.8404 1285.09 30.9241C1284.87 31.741 1284.73 32.5966 1284.67 33.5191Z" fill="#FBEEE4" fill-opacity="0.1"/>
<path fill-rule="evenodd" clip-rule="evenodd" d="M411.204 26.8879C411.734 27.0363 412.101 27.5181 412.103 28.0678C412.117 28.1029 412.117 28.1238 412.117 28.1238C412.117 28.1238 412.111 32.8328 406.535 37.1676C404.463 38.7789 402.641 41.3119 401.95 43.7813C401.815 44.2587 401.409 44.6091 400.917 44.6737C400.425 44.7376 399.943 44.5035 399.689 44.0774C398.264 41.5994 397.056 37.5533 399.771 32.846C402.417 28.2585 407.248 25.8595 411.204 26.8879ZM410.303 28.4489C406.856 28.0214 403.475 30.1157 401.366 33.7673C399.692 36.6677 400.015 39.9612 400.836 42.1395C401.514 40.1213 402.835 37.7102 405.405 35.7126C408.678 33.1674 409.951 29.8533 410.303 28.4489Z" fill="#FBEEE4" fill-opacity="0.1"/>
<path fill-rule="evenodd" clip-rule="evenodd" d="M403.922 47.7886C403.376 47.6384 402.997 47.1429 402.995 46.5766C402.981 46.5568 402.98 46.5454 402.98 46.5454C402.98 46.5454 402.986 41.8364 408.562 37.5016C410.654 35.8749 412.49 33.3093 413.166 30.8179C413.294 30.353 413.686 30.0092 414.164 29.9431C414.641 29.8773 415.112 30.1018 415.361 30.5147C416.807 32.984 418.07 37.0659 415.327 41.8232C412.687 46.3995 407.873 48.7979 403.922 47.7886ZM404.794 46.2202C408.242 46.6478 411.623 44.5534 413.731 40.9019C415.405 38.0015 415.082 34.708 414.261 32.5296C413.583 34.5478 412.262 36.959 409.693 38.9566C406.419 41.5017 405.146 44.8158 404.794 46.2202Z" fill="#FBEEE4" fill-opacity="0.1"/>
<path fill-rule="evenodd" clip-rule="evenodd" d="M396.955 47.6985C397.499 47.6916 397.972 47.3248 398.115 46.8004C398.139 46.7641 398.145 46.741 398.145 46.741C398.145 46.741 399.358 42.1904 395.095 36.561C393.515 34.4747 392.413 31.5691 392.378 29.011C392.369 28.5104 392.063 28.0635 391.6 27.8735C391.137 27.6835 390.605 27.7872 390.247 28.1372C388.236 30.1666 386.043 33.7547 387.442 38.9841C388.812 44.1047 392.863 47.6741 396.955 47.6985ZM399.792 44.9629C400.277 45.2404 400.675 45.3566 401.248 45.2591C401.006 45.8373 400.648 46.2648 400.305 46.5685C400.149 46.6916 399.933 46.7085 399.76 46.611C399.587 46.5141 399.488 46.3216 399.512 46.1241C399.528 45.8091 399.603 45.4348 399.792 44.9629ZM396.477 45.9573C393.037 45.4779 390.313 42.5804 389.222 38.5072C388.355 35.2722 389.52 32.1747 390.877 30.2829C391.009 32.4079 391.661 35.0791 393.626 37.6735C396.13 40.9791 396.502 44.5098 396.477 45.9573ZM397.668 37.5191C397.5 37.2572 397.323 37.0041 397.14 36.7622C392.875 31.1322 394.089 26.5822 394.089 26.5822C394.089 26.5822 394.096 26.5566 394.107 26.5147C394.25 25.9904 394.72 25.6204 395.263 25.6047C397.688 25.6335 400.1 26.8878 401.948 28.9729C401.5 29.4091 401.093 29.8354 400.726 30.2572C399.407 28.6735 397.695 27.6354 395.757 27.3654C395.735 28.7072 396.053 31.8404 398.095 34.9241C397.867 35.741 397.731 36.5966 397.668 37.5191Z" fill="#FBEEE4" fill-opacity="0.1"/>
<path fill-rule="evenodd" clip-rule="evenodd" d="M963.204 26.8879C963.734 27.0363 964.101 27.5181 964.103 28.0678C964.117 28.1029 964.117 28.1238 964.117 28.1238C964.117 28.1238 964.111 32.8328 958.535 37.1676C956.463 38.7789 954.641 41.3119 953.951 43.7813C953.815 44.2587 953.409 44.6091 952.917 44.6737C952.425 44.7376 951.943 44.5035 951.689 44.0774C950.264 41.5994 949.056 37.5533 951.771 32.846C954.417 28.2585 959.248 25.8595 963.204 26.8879ZM962.303 28.4489C958.856 28.0214 955.475 30.1157 953.367 33.7673C951.692 36.6677 952.015 39.9612 952.836 42.1395C953.514 40.1213 954.835 37.7102 957.405 35.7126C960.678 33.1674 961.951 29.8533 962.303 28.4489Z" fill="#FBEEE4" fill-opacity="0.1"/>
<path fill-rule="evenodd" clip-rule="evenodd" d="M955.922 47.7886C955.376 47.6384 954.997 47.1429 954.995 46.5766C954.981 46.5568 954.98 46.5454 954.98 46.5454C954.98 46.5454 954.986 41.8364 960.562 37.5016C962.654 35.8749 964.49 33.3093 965.166 30.8179C965.294 30.353 965.686 30.0092 966.164 29.9431C966.641 29.8773 967.112 30.1018 967.361 30.5147C968.807 32.984 970.07 37.0659 967.327 41.8232C964.687 46.3995 959.873 48.7979 955.922 47.7886ZM956.794 46.2202C960.242 46.6478 963.623 44.5534 965.731 40.9019C967.405 38.0015 967.082 34.708 966.261 32.5296C965.583 34.5478 964.262 36.959 961.693 38.9566C958.419 41.5017 957.146 44.8158 956.794 46.2202Z" fill="#FBEEE4" fill-opacity="0.1"/>
<path fill-rule="evenodd" clip-rule="evenodd" d="M948.955 47.6985C949.499 47.6916 949.972 47.3248 950.115 46.8004C950.139 46.7641 950.145 46.741 950.145 46.741C950.145 46.741 951.358 42.1904 947.095 36.561C945.515 34.4747 944.413 31.5691 944.378 29.011C944.369 28.5104 944.063 28.0635 943.6 27.8735C943.137 27.6835 942.605 27.7872 942.247 28.1372C940.236 30.1666 938.043 33.7547 939.442 38.9841C940.812 44.1047 944.863 47.6741 948.955 47.6985ZM951.792 44.9629C952.277 45.2404 952.675 45.3566 953.248 45.2591C953.006 45.8373 952.648 46.2648 952.305 46.5685C952.149 46.6916 951.933 46.7085 951.76 46.611C951.587 46.5141 951.488 46.3216 951.512 46.1241C951.528 45.8091 951.603 45.4348 951.792 44.9629ZM948.477 45.9573C945.037 45.4779 942.313 42.5804 941.222 38.5072C940.355 35.2722 941.52 32.1747 942.877 30.2829C943.009 32.4079 943.661 35.0791 945.626 37.6735C948.13 40.9791 948.502 44.5098 948.477 45.9573ZM949.668 37.5191C949.5 37.2572 949.323 37.0041 949.14 36.7622C944.875 31.1322 946.089 26.5822 946.089 26.5822C946.089 26.5822 946.096 26.5566 946.107 26.5147C946.25 25.9904 946.72 25.6204 947.263 25.6047C949.688 25.6335 952.1 26.8878 953.948 28.9729C953.5 29.4091 953.093 29.8354 952.726 30.2572C951.407 28.6735 949.695 27.6354 947.757 27.3654C947.735 28.7072 948.053 31.8404 950.095 34.9241C949.867 35.741 949.731 36.5966 949.668 37.5191Z" fill="#FBEEE4" fill-opacity="0.1"/>
<path fill-rule="evenodd" clip-rule="evenodd" d="M1480.2 23.8879C1480.73 24.0363 1481.1 24.5181 1481.1 25.0678C1481.12 25.1029 1481.12 25.1238 1481.12 25.1238C1481.12 25.1238 1481.11 29.8328 1475.54 34.1676C1473.46 35.7789 1471.64 38.3119 1470.95 40.7813C1470.82 41.2587 1470.41 41.6091 1469.92 41.6737C1469.43 41.7376 1468.94 41.5035 1468.69 41.0774C1467.26 38.5994 1466.06 34.5533 1468.77 29.846C1471.42 25.2585 1476.25 22.8595 1480.2 23.8879ZM1479.3 25.4489C1475.86 25.0214 1472.47 27.1157 1470.37 30.7673C1468.69 33.6677 1469.02 36.9612 1469.84 39.1395C1470.51 37.1213 1471.84 34.7102 1474.4 32.7126C1477.68 30.1674 1478.95 26.8533 1479.3 25.4489Z" fill="#FBEEE4" fill-opacity="0.1"/>
<path fill-rule="evenodd" clip-rule="evenodd" d="M1472.92 44.7886C1472.38 44.6384 1472 44.1429 1471.99 43.5766C1471.98 43.5568 1471.98 43.5454 1471.98 43.5454C1471.98 43.5454 1471.99 38.8364 1477.56 34.5016C1479.65 32.8749 1481.49 30.3093 1482.17 27.8179C1482.29 27.353 1482.69 27.0092 1483.16 26.9431C1483.64 26.8773 1484.11 27.1018 1484.36 27.5147C1485.81 29.984 1487.07 34.0659 1484.33 38.8232C1481.69 43.3995 1476.87 45.7979 1472.92 44.7886ZM1473.79 43.2202C1477.24 43.6478 1480.62 41.5534 1482.73 37.9019C1484.41 35.0015 1484.08 31.708 1483.26 29.5296C1482.58 31.5478 1481.26 33.959 1478.69 35.9566C1475.42 38.5017 1474.15 41.8158 1473.79 43.2202Z" fill="#FBEEE4" fill-opacity="0.1"/>
<path fill-rule="evenodd" clip-rule="evenodd" d="M1465.96 44.6985C1466.5 44.6916 1466.97 44.3248 1467.12 43.8004C1467.14 43.7641 1467.15 43.741 1467.15 43.741C1467.15 43.741 1468.36 39.1904 1464.09 33.561C1462.51 31.4747 1461.41 28.5691 1461.38 26.011C1461.37 25.5104 1461.06 25.0635 1460.6 24.8735C1460.14 24.6835 1459.6 24.7872 1459.25 25.1372C1457.24 27.1666 1455.04 30.7547 1456.44 35.9841C1457.81 41.1047 1461.86 44.6741 1465.96 44.6985ZM1468.79 41.9629C1469.28 42.2404 1469.67 42.3566 1470.25 42.2591C1470.01 42.8373 1469.65 43.2648 1469.31 43.5685C1469.15 43.6916 1468.93 43.7085 1468.76 43.611C1468.59 43.5141 1468.49 43.3216 1468.51 43.1241C1468.53 42.8091 1468.6 42.4348 1468.79 41.9629ZM1465.48 42.9573C1462.04 42.4779 1459.31 39.5804 1458.22 35.5072C1457.36 32.2722 1458.52 29.1747 1459.88 27.2829C1460.01 29.4079 1460.66 32.0791 1462.63 34.6735C1465.13 37.9791 1465.5 41.5098 1465.48 42.9573ZM1466.67 34.5191C1466.5 34.2572 1466.32 34.0041 1466.14 33.7622C1461.88 28.1322 1463.09 23.5822 1463.09 23.5822C1463.09 23.5822 1463.1 23.5566 1463.11 23.5147C1463.25 22.9904 1463.72 22.6204 1464.26 22.6047C1466.69 22.6335 1469.1 23.8878 1470.95 25.9729C1470.5 26.4091 1470.09 26.8354 1469.73 27.2572C1468.41 25.6735 1466.7 24.6354 1464.76 24.3654C1464.73 25.7072 1465.05 28.8404 1467.09 31.9241C1466.87 32.741 1466.73 33.5966 1466.67 34.5191Z" fill="#FBEEE4" fill-opacity="0.1"/>
<path d="M373.25 78.7499C373 78.7499 372.75 78.7499 372.55 78.7999V77.1499C372.55 76.5499 372.1 76.0999 371.5 76.0999H356.75C356.15 76.0999 355.7 76.5499 355.7 77.1499V82.3999C355.7 87.0499 359.45 90.7999 364.1 90.7999C366.7 90.7999 369 89.5999 370.55 87.7499C371.35 88.2499 372.25 88.5499 373.2 88.5499C375.9 88.5499 378.1 86.3499 378.1 83.6499C378.15 80.9499 376 78.7499 373.25 78.7499ZM364.1 88.7499C360.6 88.7499 357.8 85.8999 357.8 82.4499V78.2499H370.45V82.4499C370.4 85.8999 367.6 88.7499 364.1 88.7499ZM373.25 86.4999C372.7 86.4999 372.15 86.3499 371.7 86.0499C372.2 84.9499 372.5 83.7499 372.5 82.4499V80.9499C372.75 80.8999 372.95 80.8499 373.2 80.8499C374.75 80.8499 376 82.0999 376 83.6499C376.05 85.2499 374.85 86.4999 373.25 86.4999ZM363.3 71.5999C362.95 72.0499 363.05 72.6999 363.5 73.0499C363.7 73.1999 363.9 73.2499 364.1 73.2499C364.4 73.2499 364.75 73.0999 364.95 72.8499C366.35 70.9499 365.5 69.4999 364.95 68.6499C364.45 67.8499 364.3 67.5999 364.9 66.8999C365.25 66.4499 365.2 65.7999 364.75 65.4499C364.3 65.0999 363.65 65.1499 363.3 65.5999C361.8 67.4999 362.65 68.8999 363.2 69.7999C363.65 70.4999 363.85 70.7999 363.3 71.5999Z" fill="#FBEEE4" fill-opacity="0.1"/>
<path d="M925.25 78.7499C925 78.7499 924.75 78.7499 924.55 78.7999V77.1499C924.55 76.5499 924.1 76.0999 923.5 76.0999H908.75C908.15 76.0999 907.7 76.5499 907.7 77.1499V82.3999C907.7 87.0499 911.45 90.7999 916.1 90.7999C918.7 90.7999 921 89.5999 922.55 87.7499C923.35 88.2499 924.25 88.5499 925.2 88.5499C927.9 88.5499 930.1 86.3499 930.1 83.6499C930.15 80.9499 928 78.7499 925.25 78.7499ZM916.1 88.7499C912.6 88.7499 909.8 85.8999 909.8 82.4499V78.2499H922.45V82.4499C922.4 85.8999 919.6 88.7499 916.1 88.7499ZM925.25 86.4999C924.7 86.4999 924.15 86.3499 923.7 86.0499C924.2 84.9499 924.5 83.7499 924.5 82.4499V80.9499C924.75 80.8999 924.95 80.8499 925.2 80.8499C926.75 80.8499 928 82.0999 928 83.6499C928.05 85.2499 926.85 86.4999 925.25 86.4999ZM915.3 71.5999C914.95 72.0499 915.05 72.6999 915.5 73.0499C915.7 73.1999 915.9 73.2499 916.1 73.2499C916.4 73.2499 916.75 73.0999 916.95 72.8499C918.35 70.9499 917.5 69.4999 916.95 68.6499C916.45 67.8499 916.3 67.5999 916.9 66.8999C917.25 66.4499 917.2 65.7999 916.75 65.4499C916.3 65.0999 915.65 65.1499 915.3 65.5999C913.8 67.4999 914.65 68.8999 915.2 69.7999C915.65 70.4999 915.85 70.7999 915.3 71.5999Z" fill="#FBEEE4" fill-opacity="0.1"/>
<path d="M1477.25 78.7499C1477 78.7499 1476.75 78.7499 1476.55 78.7999V77.1499C1476.55 76.5499 1476.1 76.0999 1475.5 76.0999H1460.75C1460.15 76.0999 1459.7 76.5499 1459.7 77.1499V82.3999C1459.7 87.0499 1463.45 90.7999 1468.1 90.7999C1470.7 90.7999 1473 89.5999 1474.55 87.7499C1475.35 88.2499 1476.25 88.5499 1477.2 88.5499C1479.9 88.5499 1482.1 86.3499 1482.1 83.6499C1482.15 80.9499 1480 78.7499 1477.25 78.7499ZM1468.1 88.7499C1464.6 88.7499 1461.8 85.8999 1461.8 82.4499V78.2499H1474.45V82.4499C1474.4 85.8999 1471.6 88.7499 1468.1 88.7499ZM1477.25 86.4999C1476.7 86.4999 1476.15 86.3499 1475.7 86.0499C1476.2 84.9499 1476.5 83.7499 1476.5 82.4499V80.9499C1476.75 80.8999 1476.95 80.8499 1477.2 80.8499C1478.75 80.8499 1480 82.0999 1480 83.6499C1480.05 85.2499 1478.85 86.4999 1477.25 86.4999ZM1467.3 71.5999C1466.95 72.0499 1467.05 72.6999 1467.5 73.0499C1467.7 73.1999 1467.9 73.2499 1468.1 73.2499C1468.4 73.2499 1468.75 73.0999 1468.95 72.8499C1470.35 70.9499 1469.5 69.4999 1468.95 68.6499C1468.45 67.8499 1468.3 67.5999 1468.9 66.8999C1469.25 66.4499 1469.2 65.7999 1468.75 65.4499C1468.3 65.0999 1467.65 65.1499 1467.3 65.5999C1465.8 67.4999 1466.65 68.8999 1467.2 69.7999C1467.65 70.4999 1467.85 70.7999 1467.3 71.5999Z" fill="#FBEEE4" fill-opacity="0.1"/>
<path d="M38.25 31.7499C38 31.7499 37.75 31.7499 37.55 31.7999V30.1499C37.55 29.5499 37.1 29.0999 36.5 29.0999H21.75C21.15 29.0999 20.7 29.5499 20.7 30.1499V35.3999C20.7 40.0499 24.45 43.7999 29.1 43.7999C31.7 43.7999 34 42.5999 35.55 40.7499C36.35 41.2499 37.25 41.5499 38.2 41.5499C40.9 41.5499 43.1 39.3499 43.1 36.6499C43.15 33.9499 41 31.7499 38.25 31.7499ZM29.1 41.7499C25.6 41.7499 22.8 38.8999 22.8 35.4499V31.2499H35.45V35.4499C35.4 38.8999 32.6 41.7499 29.1 41.7499ZM38.25 39.4999C37.7 39.4999 37.15 39.3499 36.7 39.0499C37.2 37.9499 37.5 36.7499 37.5 35.4499V33.9499C37.75 33.8999 37.95 33.8499 38.2 33.8499C39.75 33.8499 41 35.0999 41 36.6499C41.05 38.2499 39.85 39.4999 38.25 39.4999ZM28.3 24.5999C27.95 25.0499 28.05 25.6999 28.5 26.0499C28.7 26.1999 28.9 26.2499 29.1 26.2499C29.4 26.2499 29.75 26.0999 29.95 25.8499C31.35 23.9499 30.5 22.4999 29.95 21.6499C29.45 20.8499 29.3 20.5999 29.9 19.8999C30.25 19.4499 30.2 18.7999 29.75 18.4499C29.3 18.0999 28.65 18.1499 28.3 18.5999C26.8 20.4999 27.65 21.8999 28.2 22.7999C28.65 23.4999 28.85 23.7999 28.3 24.5999Z" fill="#FBEEE4" fill-opacity="0.1"/>
<path d="M590.25 31.7499C590 31.7499 589.75 31.7499 589.55 31.7999V30.1499C589.55 29.5499 589.1 29.0999 588.5 29.0999H573.75C573.15 29.0999 572.7 29.5499 572.7 30.1499V35.3999C572.7 40.0499 576.45 43.7999 581.1 43.7999C583.7 43.7999 586 42.5999 587.55 40.7499C588.35 41.2499 589.25 41.5499 590.2 41.5499C592.9 41.5499 595.1 39.3499 595.1 36.6499C595.15 33.9499 593 31.7499 590.25 31.7499ZM581.1 41.7499C577.6 41.7499 574.8 38.8999 574.8 35.4499V31.2499H587.45V35.4499C587.4 38.8999 584.6 41.7499 581.1 41.7499ZM590.25 39.4999C589.7 39.4999 589.15 39.3499 588.7 39.0499C589.2 37.9499 589.5 36.7499 589.5 35.4499V33.9499C589.75 33.8999 589.95 33.8499 590.2 33.8499C591.75 33.8499 593 35.0999 593 36.6499C593.05 38.2499 591.85 39.4999 590.25 39.4999ZM580.3 24.5999C579.95 25.0499 580.05 25.6999 580.5 26.0499C580.7 26.1999 580.9 26.2499 581.1 26.2499C581.4 26.2499 581.75 26.0999 581.95 25.8499C583.35 23.9499 582.5 22.4999 581.95 21.6499C581.45 20.8499 581.3 20.5999 581.9 19.8999C582.25 19.4499 582.2 18.7999 581.75 18.4499C581.3 18.0999 580.65 18.1499 580.3 18.5999C578.8 20.4999 579.65 21.8999 580.2 22.7999C580.65 23.4999 580.85 23.7999 580.3 24.5999Z" fill="#FBEEE4" fill-opacity="0.1"/>
<path d="M1142.25 31.7499C1142 31.7499 1141.75 31.7499 1141.55 31.7999V30.1499C1141.55 29.5499 1141.1 29.0999 1140.5 29.0999H1125.75C1125.15 29.0999 1124.7 29.5499 1124.7 30.1499V35.3999C1124.7 40.0499 1128.45 43.7999 1133.1 43.7999C1135.7 43.7999 1138 42.5999 1139.55 40.7499C1140.35 41.2499 1141.25 41.5499 1142.2 41.5499C1144.9 41.5499 1147.1 39.3499 1147.1 36.6499C1147.15 33.9499 1145 31.7499 1142.25 31.7499ZM1133.1 41.7499C1129.6 41.7499 1126.8 38.8999 1126.8 35.4499V31.2499H1139.45V35.4499C1139.4 38.8999 1136.6 41.7499 1133.1 41.7499ZM1142.25 39.4999C1141.7 39.4999 1141.15 39.3499 1140.7 39.0499C1141.2 37.9499 1141.5 36.7499 1141.5 35.4499V33.9499C1141.75 33.8999 1141.95 33.8499 1142.2 33.8499C1143.75 33.8499 1145 35.0999 1145 36.6499C1145.05 38.2499 1143.85 39.4999 1142.25 39.4999ZM1132.3 24.5999C1131.95 25.0499 1132.05 25.6999 1132.5 26.0499C1132.7 26.1999 1132.9 26.2499 1133.1 26.2499C1133.4 26.2499 1133.75 26.0999 1133.95 25.8499C1135.35 23.9499 1134.5 22.4999 1133.95 21.6499C1133.45 20.8499 1133.3 20.5999 1133.9 19.8999C1134.25 19.4499 1134.2 18.7999 1133.75 18.4499C1133.3 18.0999 1132.65 18.1499 1132.3 18.5999C1130.8 20.4999 1131.65 21.8999 1132.2 22.7999C1132.65 23.4999 1132.85 23.7999 1132.3 24.5999Z" fill="#FBEEE4" fill-opacity="0.1"/>
<path d="M255.25 35.7499C255 35.7499 254.75 35.7499 254.55 35.7999V34.1499C254.55 33.5499 254.1 33.0999 253.5 33.0999H238.75C238.15 33.0999 237.7 33.5499 237.7 34.1499V39.3999C237.7 44.0499 241.45 47.7999 246.1 47.7999C248.7 47.7999 251 46.5999 252.55 44.7499C253.35 45.2499 254.25 45.5499 255.2 45.5499C257.9 45.5499 260.1 43.3499 260.1 40.6499C260.15 37.9499 258 35.7499 255.25 35.7499ZM246.1 45.7499C242.6 45.7499 239.8 42.8999 239.8 39.4499V35.2499H252.45V39.4499C252.4 42.8999 249.6 45.7499 246.1 45.7499ZM255.25 43.4999C254.7 43.4999 254.15 43.3499 253.7 43.0499C254.2 41.9499 254.5 40.7499 254.5 39.4499V37.9499C254.75 37.8999 254.95 37.8499 255.2 37.8499C256.75 37.8499 258 39.0999 258 40.6499C258.05 42.2499 256.85 43.4999 255.25 43.4999ZM245.3 28.5999C244.95 29.0499 245.05 29.6999 245.5 30.0499C245.7 30.1999 245.9 30.2499 246.1 30.2499C246.4 30.2499 246.75 30.0999 246.95 29.8499C248.35 27.9499 247.5 26.4999 246.95 25.6499C246.45 24.8499 246.3 24.5999 246.9 23.8999C247.25 23.4499 247.2 22.7999 246.75 22.4499C246.3 22.0999 245.65 22.1499 245.3 22.5999C243.8 24.4999 244.65 25.8999 245.2 26.7999C245.65 27.4999 245.85 27.7999 245.3 28.5999Z" fill="#FBEEE4" fill-opacity="0.1"/>
<path d="M807.25 35.7499C807 35.7499 806.75 35.7499 806.55 35.7999V34.1499C806.55 33.5499 806.1 33.0999 805.5 33.0999H790.75C790.15 33.0999 789.7 33.5499 789.7 34.1499V39.3999C789.7 44.0499 793.45 47.7999 798.1 47.7999C800.7 47.7999 803 46.5999 804.55 44.7499C805.35 45.2499 806.25 45.5499 807.2 45.5499C809.9 45.5499 812.1 43.3499 812.1 40.6499C812.15 37.9499 810 35.7499 807.25 35.7499ZM798.1 45.7499C794.6 45.7499 791.8 42.8999 791.8 39.4499V35.2499H804.45V39.4499C804.4 42.8999 801.6 45.7499 798.1 45.7499ZM807.25 43.4999C806.7 43.4999 806.15 43.3499 805.7 43.0499C806.2 41.9499 806.5 40.7499 806.5 39.4499V37.9499C806.75 37.8999 806.95 37.8499 807.2 37.8499C808.75 37.8499 810 39.0999 810 40.6499C810.05 42.2499 808.85 43.4999 807.25 43.4999ZM797.3 28.5999C796.95 29.0499 797.05 29.6999 797.5 30.0499C797.7 30.1999 797.9 30.2499 798.1 30.2499C798.4 30.2499 798.75 30.0999 798.95 29.8499C800.35 27.9499 799.5 26.4999 798.95 25.6499C798.45 24.8499 798.3 24.5999 798.9 23.8999C799.25 23.4499 799.2 22.7999 798.75 22.4499C798.3 22.0999 797.65 22.1499 797.3 22.5999C795.8 24.4999 796.65 25.8999 797.2 26.7999C797.65 27.4999 797.85 27.7999 797.3 28.5999Z" fill="#FBEEE4" fill-opacity="0.1"/>
<path d="M1359.25 35.7499C1359 35.7499 1358.75 35.7499 1358.55 35.7999V34.1499C1358.55 33.5499 1358.1 33.0999 1357.5 33.0999H1342.75C1342.15 33.0999 1341.7 33.5499 1341.7 34.1499V39.3999C1341.7 44.0499 1345.45 47.7999 1350.1 47.7999C1352.7 47.7999 1355 46.5999 1356.55 44.7499C1357.35 45.2499 1358.25 45.5499 1359.2 45.5499C1361.9 45.5499 1364.1 43.3499 1364.1 40.6499C1364.15 37.9499 1362 35.7499 1359.25 35.7499ZM1350.1 45.7499C1346.6 45.7499 1343.8 42.8999 1343.8 39.4499V35.2499H1356.45V39.4499C1356.4 42.8999 1353.6 45.7499 1350.1 45.7499ZM1359.25 43.4999C1358.7 43.4999 1358.15 43.3499 1357.7 43.0499C1358.2 41.9499 1358.5 40.7499 1358.5 39.4499V37.9499C1358.75 37.8999 1358.95 37.8499 1359.2 37.8499C1360.75 37.8499 1362 39.0999 1362 40.6499C1362.05 42.2499 1360.85 43.4999 1359.25 43.4999ZM1349.3 28.5999C1348.95 29.0499 1349.05 29.6999 1349.5 30.0499C1349.7 30.1999 1349.9 30.2499 1350.1 30.2499C1350.4 30.2499 1350.75 30.0999 1350.95 29.8499C1352.35 27.9499 1351.5 26.4999 1350.95 25.6499C1350.45 24.8499 1350.3 24.5999 1350.9 23.8999C1351.25 23.4499 1351.2 22.7999 1350.75 22.4499C1350.3 22.0999 1349.65 22.1499 1349.3 22.5999C1347.8 24.4999 1348.65 25.8999 1349.2 26.7999C1349.65 27.4999 1349.85 27.7999 1349.3 28.5999Z" fill="#FBEEE4" fill-opacity="0.1"/>
</svg>
